# xmcd CD database file
#
# Track frame offsets:
#	150
#	15167
#	43759
#	61397
#	78137
#	95362
#	115867
#	128672
#	145912
#	179224
#
# Disc length: 2607 seconds
#
# Revision: 2
# Processed by: cddbd v1.4PL0 Copyright (c) Steve Scherf et al.
# Submitted via: CDex 1.50beta9
#
DISCID=7d0a2d0a
DTITLE=Johnny Winter - The Progressive Blues Experiment
DYEAR=1993
DGENRE=Blues-Rock
TTITLE0=Rollin' And Tumblin'
TTITLE1=Tribute To Muddy
TTITLE2=I Got Love If You Want It
TTITLE3=Bad Luck And Trouble
TTITLE4=Help Me
TTITLE5=Mean Town Blues
TTITLE6=Broke Down Engine
TTITLE7=Black Cat Bone
TTITLE8=It's My Own Fault
TTITLE9=Forty-Four
EXTD=YEAR: 1993
EXTT0=
EXTT1=
EXTT2=
EXTT3=
EXTT4=
EXTT5=
EXTT6=
EXTT7=
EXTT8=
EXTT9=
PLAYORDER=
